<svg xmlns="http://www.w3.org/2000/svg" xmlns:xlink="http://www.w3.org/1999/xlink" id="wlogodesk" x="0px" y="0px" viewBox="0 0 500 130" style="enable-background:new 0 0 500 130;" xml:space="preserve"><style type="text/css">	.st0{fill:#0034A0;}</style><g>	<g>		<rect x="100.6" y="112" class="st0" width="2.9" height="17.7"></rect>		<polygon class="st0" points="124.5,129.7 121.6,129.7 121.6,117.1 116.2,126 115.8,126 110.4,117 110.4,129.7 107.5,129.7     107.5,112 110.7,112 116,120.8 121.4,112 124.5,112   "></polygon>		<path class="st0" d="M141,117.8c0,3.3-2.5,5.8-5.9,5.8h-3.6v6.1h-2.9V112h6.6C138.5,112,141,114.5,141,117.8 M138.1,117.8    c0-1.8-1.2-3.1-3-3.1h-3.6v6.2h3.6C136.8,120.9,138.1,119.6,138.1,117.8"></path>		<path class="st0" d="M142.9,120.8c0-5.1,4.1-9.2,9.2-9.2c5.2,0,9.2,4,9.2,9.2c0,5.1-4.1,9.2-9.2,9.2    C147,130,142.9,126,142.9,120.8 M158.5,120.8c0-3.6-2.7-6.3-6.3-6.3c-3.6,0-6.3,2.7-6.3,6.3c0,3.6,2.7,6.3,6.3,6.3    C155.7,127.2,158.5,124.5,158.5,120.8"></path>		<path class="st0" d="M170.9,123.2h-3.5v6.4h-2.9V112h7.1c3.2,0,5.7,2.5,5.7,5.7c0,2.3-1.5,4.3-3.5,5.1l4,6.9h-3.2L170.9,123.2z     M167.4,120.6h4.2c1.6,0,2.8-1.3,2.8-3c0-1.7-1.2-3-2.8-3h-4.2V120.6z"></path>		<polygon class="st0" points="191.7,114.8 186.7,114.8 186.7,129.7 183.8,129.7 183.8,114.8 178.7,114.8 178.7,112 191.7,112   "></polygon>		<path class="st0" d="M203.4,126.1h-7.6l-1.2,3.6h-3.2l6.5-17.7h3.5l6.4,17.7h-3.2L203.4,126.1z M202.4,123.4l-2.8-8l-2.8,8H202.4z    "></path>		<path class="st0" d="M225.7,120.8c0,4.9-3.6,8.9-8.5,8.9h-7V112h7C222.1,112,225.7,115.9,225.7,120.8 M222.8,120.8    c0-3.5-2.3-6.1-5.7-6.1h-4.1v12.1h4.1C220.5,126.9,222.8,124.3,222.8,120.8"></path>		<path class="st0" d="M227.9,120.8c0-5.1,4.1-9.2,9.2-9.2c5.2,0,9.2,4,9.2,9.2c0,5.1-4.1,9.2-9.2,9.2    C232,130,227.9,126,227.9,120.8 M243.4,120.8c0-3.6-2.7-6.3-6.3-6.3c-3.6,0-6.3,2.7-6.3,6.3c0,3.6,2.7,6.3,6.3,6.3    C240.7,127.2,243.4,124.5,243.4,120.8"></path>		<path class="st0" d="M247.9,125.7l2.5-1.5c0.6,1.8,2,3,4.4,3c2.3,0,3.3-1,3.3-2.3c0-1.6-1.4-2.1-4-2.9c-2.8-0.8-5.5-1.8-5.5-5.2    c0-3.3,2.7-5.1,5.7-5.1c2.9,0,5.1,1.5,6.2,3.9l-2.5,1.4c-0.6-1.4-1.8-2.5-3.7-2.5c-1.7,0-2.8,0.9-2.8,2.2c0,1.4,1,1.9,3.6,2.8    c3,0.9,5.9,1.8,5.9,5.4c0,3.2-2.6,5.2-6.3,5.2C251.2,130,248.8,128.3,247.9,125.7"></path>		<path class="st0" d="M283.3,117.8c0,3.3-2.5,5.8-5.9,5.8h-3.6v6.1h-2.9V112h6.6C280.7,112,283.3,114.5,283.3,117.8 M280.4,117.8    c0-1.8-1.2-3.1-3-3.1h-3.6v6.2h3.6C279.1,120.9,280.4,119.6,280.4,117.8"></path>		<path class="st0" d="M294.8,126.1h-7.6l-1.2,3.6h-3.2l6.5-17.7h3.5l6.4,17.7h-3.2L294.8,126.1z M293.9,123.4l-2.8-8l-2.8,8H293.9z    "></path>		<path class="st0" d="M308,123.2h-3.5v6.4h-2.9V112h7.1c3.2,0,5.7,2.5,5.7,5.7c0,2.3-1.5,4.3-3.5,5.1l4,6.9h-3.2L308,123.2z     M304.5,120.6h4.2c1.6,0,2.8-1.3,2.8-3c0-1.7-1.2-3-2.8-3h-4.2V120.6z"></path>		<path class="st0" d="M328,126.1h-7.6l-1.2,3.6H316l6.5-17.7h3.5l6.4,17.7h-3.2L328,126.1z M327,123.4l-2.8-8l-2.8,8H327z"></path>		<path class="st0" d="M351.4,121.7c0,4.8-3.5,8.3-8.7,8.3c-5.5,0-9.5-4.1-9.5-9.2c0-5.1,4-9.2,9.3-9.2c3.4,0,6.3,1.7,7.8,4.2    l-2.5,1.4c-0.9-1.6-2.9-2.8-5.2-2.8c-3.8,0-6.4,2.8-6.4,6.4c0,3.6,2.6,6.3,6.6,6.3c3.2,0,5.2-1.7,5.7-4h-6v-2.6h8.9V121.7z"></path>		<path class="st0" d="M354.2,123.8V112h2.9v11.7c0,2.1,1.2,3.5,3.8,3.5c2.6,0,3.8-1.5,3.8-3.5V112h2.9v11.8c0,3.8-2.9,6.2-6.7,6.2    C357,130,354.2,127.6,354.2,123.8"></path>		<path class="st0" d="M381.3,126.1h-7.6l-1.2,3.6h-3.2l6.5-17.7h3.5l6.4,17.7h-3.2L381.3,126.1z M380.3,123.4l-2.8-8l-2.8,8H380.3z    "></path>		<polygon class="st0" points="393.2,122.6 393.2,129.7 390.3,129.7 390.3,122.6 384.1,112 387.4,112 391.8,119.8 396.1,112     399.4,112   "></polygon>		<path class="st0" d="M136.9,55.4c0-10.7-2.6-19.1-7.8-25.3c-5.2-6.2-12.7-9.3-22.4-9.3c-10.4,0-18.9,3.5-25.4,10.6    c-6.5,7.1-9.8,15.8-9.8,26.1c0,11.9,3.1,21.2,9.3,27.7c6.2,6.5,14.4,9.8,24.5,9.8c10,0,19.4-2.9,28.1-8.6l-3.2-4.8    c-6.9,5-14.7,7.5-23.5,7.5c-8.7,0-15.5-2.7-20.5-8.2c-5-5.5-7.5-13.1-7.5-22.8h58L136.9,55.4L136.9,55.4z M79.2,52.4    c1.1-8.3,4.1-14.7,8.9-19.1c4.8-4.4,10.9-6.7,18.2-6.7c7.1,0,12.6,2.3,16.7,6.8c4,4.5,6.2,10.9,6.5,19L79.2,52.4L79.2,52.4z"></path>		<path class="st0" d="M196.6,75.1c0,4.9,0.9,8.4,2.6,10.6c1.7,2.2,4.6,3.3,8.7,3.3c2.9,0,6-0.9,9.4-2.6v5.9    c-3.7,1.6-7.1,2.4-10.3,2.4c-11.6,0-17.4-6.3-17.4-18.8V0h7L196.6,75.1L196.6,75.1z"></path>		<path class="st0" d="M158.2,75.1c0,4.9,0.9,8.4,2.6,10.6c1.7,2.2,4.6,3.3,8.7,3.3c2.9,0,6-0.9,9.4-2.6v5.9    c-3.7,1.6-7.1,2.4-10.3,2.4c-11.6,0-17.4-6.3-17.4-18.8V0h7L158.2,75.1L158.2,75.1z"></path>		<path class="st0" d="M237,77c2.1,1.7,4,3,5.7,4.1c1.7,1.1,3.2,1.8,4.4,2.1c1.2,0.3,2.4,0.6,3.6,0.9c1.2,0.2,2.2,0.4,3,0.4    c7.3,0,10.9-2.5,10.9-7.5c0-1.6-0.9-3.1-2.7-4.4c-1.8-1.3-4.7-2.7-8.8-4.3c-3.4-1.4-6.3-2.7-8.6-4.1c-2.3-1.4-4.2-2.7-5.5-4.1    c-1.5-1.6-2.6-3.3-3.4-5.3c-0.8-1.9-1.2-4-1.2-6.2c0-5.8,2.4-10.4,7.2-13.9c4.7-3.4,10.4-5.1,16.9-5.1c3.1,0,6.3,0.5,9.8,1.7    c3.5,1.1,7.2,2.7,11.1,4.8L274.3,47c-3.3-2-6.3-3.5-9-4.4c-2.7-0.9-5.1-1.4-7.2-1.4c-3.1,0-5.6,0.7-7.5,2.1    c-0.8,0.6-1.4,1.4-1.9,2.2c-0.5,0.8-0.7,1.8-0.7,2.7c0,0.8,0.1,1.6,0.4,2.4c0.3,0.8,0.7,1.4,1.2,2c0.8,0.7,2,1.4,3.5,2.2    c1.6,0.8,3.4,1.7,5.5,2.5c3.5,1.4,6.5,2.9,8.9,4.2c2.5,1.4,4.3,2.7,5.7,4c3.2,2.9,4.8,6.7,4.8,11.4c0,2.8-0.6,5.4-1.8,7.7    c-1.2,2.3-2.9,4.4-5.2,6.2c-2.2,1.6-4.8,2.9-7.8,3.8c-3.1,1-6.5,1.5-10.2,1.5c-3.5,0-7.1-0.7-10.8-2c-3.7-1.3-7.6-3.3-11.8-6    L237,77z"></path>		<path class="st0" d="M335.4,94.7V57.3c0-5.6-1-9.7-3.1-12.2c-2.1-2.6-5.3-3.8-9.8-3.8c-6.1,0-11.6,3.7-16.5,11.1v42.3h-13.3v-91    H306V35c2.5-1.9,5.2-3.2,8.1-4.1c2.9-0.9,6.2-1.3,9.9-1.3c8,0,14.1,2.3,18.3,6.8c4.2,4.6,6.4,11.1,6.4,19.6v38.7H335.4z"></path>		<path class="st0" d="M498,48.4c-1.3-3.8-3.2-7.1-5.6-9.8c-2.6-2.7-5.8-4.9-9.5-6.5c-3.7-1.6-7.8-2.4-12.2-2.4    c-2.2,0.1-4.2,0.3-6,0.5c-1.9,0.3-3.6,0.6-5.2,1.1c-1.6,0.5-3.1,1.1-4.5,1.8c-1.4,0.7-2.7,1.6-4,2.7v-4.7h-13.4v91.2h13.4V90.8    c2.3,1.9,4.9,3.2,7.6,4.1c2.8,0.9,5.9,1.3,9.6,1.2c4.7,0,9.1-0.9,13-2.7c3.9-1.8,7.4-4.3,10.4-7.5c2.7-3.2,4.7-6.9,6.2-11.2    c1.5-4.3,2.2-8.9,2.2-14C500,56.3,499.3,52.2,498,48.4 M485,70.8c-1,3-2.3,5.6-3.9,7.7l0.1-0.1c-1.6,1.7-3.5,3.2-5.7,4.4    c-2.2,1.2-4.5,1.8-6.9,1.8c-3.6,0-6.8-0.9-9.8-2.5c-3-1.6-5.6-4.1-7.9-7.3V51.2c0.9-1.5,2.1-2.9,3.6-4c1.5-1.1,3.1-2.1,4.8-2.9    c1.7-0.8,3.6-1.5,5.5-1.9c1.9-0.5,3.8-0.8,5.6-1.1c2.2,0.1,4.3,0.6,6.3,1.4c2,0.9,3.6,2,5,3.5h-0.1c1.6,1.7,2.8,3.9,3.6,6.4    c0.8,2.5,1.2,5.3,1.2,8.4C486.5,64.5,486,67.7,485,70.8"></path>		<path class="st0" d="M423.6,49.3c-1.5-4-3.7-7.5-6.6-10.5c-6-6.1-14-9.1-24-9.1c-5,0-9.6,0.8-13.8,2.4c-4.2,1.6-7.9,3.9-11,6.7    c-3,3-5.4,6.6-7,10.7c-1.6,4.1-2.4,8.7-2.4,13.8c0,4.9,0.8,9.2,2.3,13.1c1.5,3.9,3.7,7.4,6.6,10.4c3,3.1,6.6,5.5,10.8,7    c4.1,1.6,8.8,2.4,13.9,2.4c5.1,0,9.8-0.8,14-2.5c4.2-1.6,7.7-4,10.6-7c2.9-3.1,5.1-6.6,6.6-10.5c1.5-4,2.3-8.3,2.3-13.1    C425.8,57.8,425,53.3,423.6,49.3 M410.9,72.2c-0.9,2.8-2.2,5.1-3.9,6.9c-1.7,1.7-3.8,3-6.2,3.9c-2.4,1-5.2,1.5-8.3,1.5    c-6.2,0-11.1-1.9-14.7-5.6c-3.7-3.9-5.5-9-5.5-15.5c0-7.2,1.8-12.7,5.5-16.5c3.6-3.7,8.6-5.6,14.9-5.6c6.3,0,11.1,1.8,14.4,5.5    c3.3,3.7,5,9.1,5,16.1C412.2,66.3,411.8,69.4,410.9,72.2"></path>		<path class="st0" d="M60.1,88.5c-8.3,4.4-16.5,6.6-24.5,6.6c-10.7,0-19.2-3.3-25.8-9.9C3.3,78.5,0,69.9,0,59.2    C0,48,3.7,38.8,11,31.6c7.3-7.2,16.8-10.7,28.3-10.7c7.8,0,14.8,1.8,21.3,5.6l-3.9,4.9c-5.6-3.1-11.8-4.7-18.4-4.7    c-9.2,0-16.6,3-22.3,8.9c-5.7,6-8.6,13.7-8.6,23.2c0,9.2,2.6,16.5,7.8,22.1c5.2,5.6,12.1,8.4,20.7,8.4c7.8,0,14.7-1.9,20.5-5.7    L60.1,88.5z"></path>		<rect x="100.6" y="112" class="st0" width="2.9" height="17.7"></rect>		<polygon class="st0" points="124.5,129.7 121.6,129.7 121.6,117.1 116.2,126 115.8,126 110.4,117 110.4,129.7 107.5,129.7     107.5,112 110.7,112 116,120.8 121.4,112 124.5,112   "></polygon>		<path class="st0" d="M141,117.8c0,3.3-2.5,5.8-5.9,5.8h-3.6v6.1h-2.9V112h6.6C138.5,112,141,114.5,141,117.8 M138.1,117.8    c0-1.8-1.2-3.1-3-3.1h-3.6v6.2h3.6C136.8,120.9,138.1,119.6,138.1,117.8"></path>		<path class="st0" d="M142.9,120.8c0-5.1,4.1-9.2,9.2-9.2c5.2,0,9.2,4,9.2,9.2c0,5.1-4.1,9.2-9.2,9.2    C147,130,142.9,126,142.9,120.8 M158.5,120.8c0-3.6-2.7-6.3-6.3-6.3c-3.6,0-6.3,2.7-6.3,6.3c0,3.6,2.7,6.3,6.3,6.3    C155.7,127.2,158.5,124.5,158.5,120.8"></path>		<path class="st0" d="M170.9,123.2h-3.5v6.4h-2.9V112h7.1c3.2,0,5.7,2.5,5.7,5.7c0,2.3-1.5,4.3-3.5,5.1l4,6.9h-3.2L170.9,123.2z     M167.4,120.6h4.2c1.6,0,2.8-1.3,2.8-3c0-1.7-1.2-3-2.8-3h-4.2V120.6z"></path>		<polygon class="st0" points="191.7,114.8 186.7,114.8 186.7,129.7 183.8,129.7 183.8,114.8 178.7,114.8 178.7,112 191.7,112   "></polygon>		<path class="st0" d="M203.4,126.1h-7.6l-1.2,3.6h-3.2l6.5-17.7h3.5l6.4,17.7h-3.2L203.4,126.1z M202.4,123.4l-2.8-8l-2.8,8H202.4z    "></path>		<path class="st0" d="M225.7,120.8c0,4.9-3.6,8.9-8.5,8.9h-7V112h7C222.1,112,225.7,115.9,225.7,120.8 M222.8,120.8    c0-3.5-2.3-6.1-5.7-6.1h-4.1v12.1h4.1C220.5,126.9,222.8,124.3,222.8,120.8"></path>		<path class="st0" d="M227.9,120.8c0-5.1,4.1-9.2,9.2-9.2c5.2,0,9.2,4,9.2,9.2c0,5.1-4.1,9.2-9.2,9.2    C232,130,227.9,126,227.9,120.8 M243.4,120.8c0-3.6-2.7-6.3-6.3-6.3c-3.6,0-6.3,2.7-6.3,6.3c0,3.6,2.7,6.3,6.3,6.3    C240.7,127.2,243.4,124.5,243.4,120.8"></path>		<path class="st0" d="M247.9,125.7l2.5-1.5c0.6,1.8,2,3,4.4,3c2.3,0,3.3-1,3.3-2.3c0-1.6-1.4-2.1-4-2.9c-2.8-0.8-5.5-1.8-5.5-5.2    c0-3.3,2.7-5.1,5.7-5.1c2.9,0,5.1,1.5,6.2,3.9l-2.5,1.4c-0.6-1.4-1.8-2.5-3.7-2.5c-1.7,0-2.8,0.9-2.8,2.2c0,1.4,1,1.9,3.6,2.8    c3,0.9,5.9,1.8,5.9,5.4c0,3.2-2.6,5.2-6.3,5.2C251.2,130,248.8,128.3,247.9,125.7"></path>		<path class="st0" d="M283.3,117.8c0,3.3-2.5,5.8-5.9,5.8h-3.6v6.1h-2.9V112h6.6C280.7,112,283.3,114.5,283.3,117.8 M280.4,117.8    c0-1.8-1.2-3.1-3-3.1h-3.6v6.2h3.6C279.1,120.9,280.4,119.6,280.4,117.8"></path>		<path class="st0" d="M294.8,126.1h-7.6l-1.2,3.6h-3.2l6.5-17.7h3.5l6.4,17.7h-3.2L294.8,126.1z M293.9,123.4l-2.8-8l-2.8,8H293.9z    "></path>		<path class="st0" d="M308,123.2h-3.5v6.4h-2.9V112h7.1c3.2,0,5.7,2.5,5.7,5.7c0,2.3-1.5,4.3-3.5,5.1l4,6.9h-3.2L308,123.2z     M304.5,120.6h4.2c1.6,0,2.8-1.3,2.8-3c0-1.7-1.2-3-2.8-3h-4.2V120.6z"></path>		<path class="st0" d="M328,126.1h-7.6l-1.2,3.6H316l6.5-17.7h3.5l6.4,17.7h-3.2L328,126.1z M327,123.4l-2.8-8l-2.8,8H327z"></path>		<path class="st0" d="M351.4,121.7c0,4.8-3.5,8.3-8.7,8.3c-5.5,0-9.5-4.1-9.5-9.2c0-5.1,4-9.2,9.3-9.2c3.4,0,6.3,1.7,7.8,4.2    l-2.5,1.4c-0.9-1.6-2.9-2.8-5.2-2.8c-3.8,0-6.4,2.8-6.4,6.4c0,3.6,2.6,6.3,6.6,6.3c3.2,0,5.2-1.7,5.7-4h-6v-2.6h8.9V121.7z"></path>		<path class="st0" d="M354.2,123.8V112h2.9v11.7c0,2.1,1.2,3.5,3.8,3.5c2.6,0,3.8-1.5,3.8-3.5V112h2.9v11.8c0,3.8-2.9,6.2-6.7,6.2    C357,130,354.2,127.6,354.2,123.8"></path>		<path class="st0" d="M381.3,126.1h-7.6l-1.2,3.6h-3.2l6.5-17.7h3.5l6.4,17.7h-3.2L381.3,126.1z M380.3,123.4l-2.8-8l-2.8,8H380.3z    "></path>		<polygon class="st0" points="393.2,122.6 393.2,129.7 390.3,129.7 390.3,122.6 384.1,112 387.4,112 391.8,119.8 396.1,112     399.4,112   "></polygon>	</g></g></svg>